<?xml version="1.0" standalone="no"?><!DOCTYPE svg PUBLIC "-//W3C//DTD SVG 1.1//EN" "http://www.w3.org/Graphics/SVG/1.1/DTD/svg11.dtd"><svg t="1614261066144" class="icon" viewBox="0 0 1024 1024" version="1.1" xmlns="http://www.w3.org/2000/svg" p-id="2100" xmlns:xlink="http://www.w3.org/1999/xlink" width="200" height="200"><defs><style type="text/css"></style></defs><path d="M748.307692 649.846154h157.538462v59.076923h-157.538462v59.076923h216.615385v-177.230769h-157.538462v-59.076923h157.538462v-59.076923H748.307692v177.230769z m-256 118.153846h216.615385v-59.076923h-157.538462v-59.076923h118.153847v-59.076923h-118.153847v-59.076923h157.538462v-59.076923H492.307692v295.384615z m-59.076923 0V472.615385h-59.076923l-78.769231 157.538461-98.461538-157.538461H137.846154v295.384615h59.076923v-177.230769l98.461538 137.846154 78.769231-137.846154v177.230769h59.076923zM0 98.264615v845.233231L630.153846 945.230769v-59.076923H59.076923V315.076923h886.153846v59.076923l59.076923-1.201231V98.264615H0zM945.230769 256H59.076923V157.538462h886.153846v98.461538z m-19.692307-78.769231h-59.076924v59.076923h59.076924V177.230769z m-157.538462 0h-59.076923v59.076923h59.076923V177.230769z m78.769231 0h-59.076923v59.076923h59.076923V177.230769z" p-id="2101"></path></svg>